<?xml version="1.0" encoding="UTF-8" standalone="no"?>
<svg
   id="svg1434"
   version="1.1"
   viewBox="0 0 72.231251 25.4"
   height="96"
   width="273"
   sodipodi:docname="logo.svg"
   inkscape:version="1.1.1 (3bf5ae0d25, 2021-09-20)"
   xmlns:inkscape="http://www.inkscape.org/namespaces/inkscape"
   xmlns:sodipodi="http://sodipodi.sourceforge.net/DTD/sodipodi-0.dtd"
   xmlns="http://www.w3.org/2000/svg"
   xmlns:svg="http://www.w3.org/2000/svg"
   xmlns:rdf="http://www.w3.org/1999/02/22-rdf-syntax-ns#"
   xmlns:cc="http://creativecommons.org/ns#"
   xmlns:dc="http://purl.org/dc/elements/1.1/">
  <sodipodi:namedview
     id="namedview18"
     pagecolor="#505050"
     bordercolor="#eeeeee"
     borderopacity="1"
     inkscape:pageshadow="0"
     inkscape:pageopacity="0"
     inkscape:pagecheckerboard="0"
     showgrid="false"
     fit-margin-top="0"
     fit-margin-left="0"
     fit-margin-right="0"
     fit-margin-bottom="0"
     inkscape:zoom="1.3105469"
     inkscape:cx="251.42176"
     inkscape:cy="75.540984"
     inkscape:window-width="2560"
     inkscape:window-height="1371"
     inkscape:window-x="2560"
     inkscape:window-y="32"
     inkscape:window-maximized="1"
     inkscape:current-layer="svg1434" />
  <defs
     id="defs1428">
    <clipPath
       id="clipPath11622"
       clipPathUnits="userSpaceOnUse">
      <g
         id="g11624"
         transform="matrix(0.96968375,0,0,0.96968375,2344.6611,919.3584)">
        <g
           id="g11626">
          <path
             id="path11628"
             d="m -1380.549,-396.694 c -11.948,0 -14.193,17.022 -7.469,17.022 6.721,0.001 19.421,-17.022 7.469,-17.022 z"
             style="fill:#2e3436" />
          <path
             id="path11630"
             d="m -1400.394,-381.782 c 3.582,0.22 7.508,-13.66 0.78,-12.788 -6.726,0.873 -4.361,12.571 -0.78,12.788 z"
             style="fill:#2e3436" />
          <path
             id="path11632"
             d="m -1416.799,-373.157 c 2.545,-1.122 0.327,-12.084 -4.003,-9.092 -4.327,2.991 1.458,10.212 4.003,9.092 z"
             style="fill:#2e3436" />
          <path
             id="path11634"
             d="m -1409.627,-378.894 c 3.032,-0.619 3.197,-13.05 -2.206,-10.82 -5.406,2.23 -0.821,11.438 2.206,10.82 z"
             style="fill:#2e3436" />
          <path
             id="path11636"
             d="m -1393.798,-351.072 c 0.537,4.105 -3.014,6.134 -6.491,3.487 -11.07,-8.428 18.329,-12.634 16.39,-24.147 -1.606,-9.558 -30.933,-6.617 -34.273,8.34 -2.261,10.114 9.305,24.147 21.371,24.147 5.938,0 12.785,-5.361 14.067,-12.151 0.977,-5.179 -11.514,-3.102 -11.064,0.324 z"
             style="fill:#2e3436" />
        </g>
      </g>
    </clipPath>
  </defs>
  <metadata
     id="metadata1431">
    <rdf:RDF>
      <cc:Work
         rdf:about="">
        <dc:format>image/svg+xml</dc:format>
        <dc:type
           rdf:resource="http://purl.org/dc/dcmitype/StillImage" />
      </cc:Work>
    </rdf:RDF>
  </metadata>
  <g
     transform="translate(231.19251,-23.386546)"
     id="layer1">
    <g
       transform="translate(5.2519667,28.16496)"
       id="text874"
       style="font-style:normal;font-weight:normal;font-size:32.584px;line-height:1.25;font-family:sans-serif;letter-spacing:0px;word-spacing:0px;opacity:0.99;fill:#000000;fill-opacity:1;stroke:none;stroke-width:0.872786"
       aria-label="GJS">
      <path
         id="path897"
         style="fill:#4a86cf;fill-opacity:1;stroke-width:0.872786"
         d="m -227.19062,17.378706 c 2.76964,0 5.05052,-1.107856 6.38646,-2.476384 V 5.9091377 h -6.77747 v 2.248296 h 4.2685 v 5.5718643 c -0.8146,0.782016 -2.21571,1.270776 -3.71457,1.270776 -4.20334,0 -6.58197,-3.388736 -6.58197,-8.7650963 0,-5.31119192 2.6393,-8.6347599 6.64713,-8.6347599 2.0528,0 3.32357,0.847184 4.36626,1.95504 l 1.53145,-1.726952 c -1.20561,-1.270776 -3.0629,-2.60672 -5.89771,-2.60672 -5.53928,0 -9.48194,4.170752 -9.48194,11.0785599 0,6.9729763 3.8775,11.0785603 9.25386,11.0785603 z" />
      <path
         id="path899"
         style="font-style:normal;font-variant:normal;font-weight:normal;font-stretch:normal;font-family:'Source Code Pro';-inkscape-font-specification:'Source Code Pro';stroke-width:0.872786"
         d="m -209.64058,17.378706 c 5.3112,0 7.07073,-3.2584 7.07073,-7.233648 V -4.4199902 h -11.66507 v 2.28088 h 8.9606 V 9.9169697 c 0,3.5190723 -1.36853,5.0831043 -4.43142,5.0831043 -1.66179,0 -3.38874,-0.912352 -4.59435,-2.834808 l -1.69437,1.661784 c 1.46628,2.4438 3.97525,3.551656 6.35388,3.551656 z" />
      <path
         id="path901"
         style="font-style:normal;font-variant:normal;font-weight:normal;font-stretch:normal;font-family:'Source Code Pro';-inkscape-font-specification:'Source Code Pro';fill:#000000;fill-opacity:1;stroke-width:0.87286;stroke-miterlimit:4;stroke-dasharray:none"
         d="m -189.15797,17.378706 c 4.6921,0 7.55949,-2.704472 7.55949,-6.093208 0,-3.1606483 -2.08538,-4.6269283 -4.72468,-5.7022003 l -2.99773,-1.30336 c -1.8247,-0.7494319 -3.81233,-1.4988639 -3.81233,-3.55165592 0,-1.92245598 1.66179,-3.12806398 4.13817,-3.12806398 2.21571,0 3.84491,0.782016 5.24603,2.020208 l 1.43369,-1.759536 c -1.56403,-1.564032 -3.91008,-2.639304 -6.58197,-2.639304 -4.073,0 -7.00556,2.411216 -7.00556,5.66961598 0,3.12806392 2.47639,4.65951192 4.62693,5.50669592 l 3.0629,1.335944 c 2.18313,0.944936 3.84491,1.596616 3.84491,3.8774963 0,1.987624 -1.72695,3.388736 -4.65951,3.388736 -2.4438,0 -4.65951,-1.075272 -6.25613,-2.671888 l -1.6292,1.889872 c 1.92246,1.922456 4.62693,3.160648 7.75499,3.160648 z" />
    </g>
  </g>
  <text
     xml:space="preserve"
     style="font-size:17.7643px;line-height:1.25;font-family:Niconne;-inkscape-font-specification:Niconne;stroke-width:0.444109"
     x="56.365383"
     y="21.498238"
     id="text6799"><tspan
       sodipodi:role="line"
       id="tspan6797"
       style="stroke-width:0.444109"
       x="56.365383"
       y="21.498238">ify</tspan></text>
</svg>
